<svg xmlns="http://www.w3.org/2000/svg" viewBox="0 0 112 106"><defs><style>.a{fill:red;}.b,.c{fill:#fff;}.b{fill-rule:evenodd;}</style></defs><circle class="a" cx="55" cy="53" r="45"/><path class="b" d="M30,28.8c2.22-2.54,2.84-7.07,7.41-6.36l.52.08c1.91.29,6.14,5.35,6.39,7.52l3.28-.68c-.35-3.21-5.76-8.39-9.87-9l-1-.16c-3.36-.51-6.06,4.59-6.68,8.62"/><path class="b" d="M39.34,20.06C47,21.23,49,22.63,51,28.49L53.8,27.1c-1.06-2.25-6.28-7.93-9.43-8.41l-1-.16a3.76,3.76,0,0,0-4,1.53"/><path class="b" d="M27.26,34.26,26.38,40A64.53,64.53,0,0,1,23,53.11c-1.21,2.73-5.24,9.16-5.62,10.71,5.25-2.73,11.24-17.35,12.69-26.13L56.78,34C60.45,37.34,62.37,45.6,64,51c.85,2.83,4.37,17.62,5,18.62.26-3.67-2.69-18.23-3.59-22C64.28,42.9,60.27,30.44,60,27c-2.65.29-11.91,3.61-15.77,4.47s-12.73,3.48-17,2.83"/><path class="b" d="M92.64,68.45,64.45,29.91C64.45,30.48,72,50.2,73,52.6c1.84,4.68,6,18.81,5.72,24.46,1.27-.7,2.63-3.86,4.69-5.49,2.79-2.19,3.19-1.82,6-3.24Z"/><path class="b" d="M61.31,30.45C63.56,36.59,71.37,56.08,70.89,63l-.41,5.9c-.13,1.83-2.55,3.47-4.79,3.31-4-.28-7.55-2.35-10.31-2.54l-4.54-.32c-7.54-.53-27.2,3.15-30.08,6.56C27,74.92,31,73,39.16,73.57l9.52.66C59,75,66.65,81,75.06,81.55c1.47.1,2.39-1.49,2.49-3,.57-8.13-4.16-19.17-6.58-25.38-1.59-4.09-7.59-20.95-9.66-22.7"/><path class="c" d="M59.61,59.83a2,2,0,0,1,.15,1.64,2,2,0,0,1-1.19,1.26,26.27,26.27,0,0,1-4.35,1.19,18.67,18.67,0,0,1-4.38.37,8.23,8.23,0,0,1-3.5-.8,5.21,5.21,0,0,1-2.28-3.68,6,6,0,0,1,0-1.73.52.52,0,0,0-.31-.56,1,1,0,0,0-.8.12c-.42.19-.94.46-1.55.81s-1.26.75-2,1.18S38,60.51,37.29,61s-1.38.88-2,1.25a7,7,0,0,1-4,1,3.87,3.87,0,0,1-2.69-1.35,4.64,4.64,0,0,1-.81-3.84,9.93,9.93,0,0,1,.72-2.22,12.2,12.2,0,0,1,1.17-2.05A19.56,19.56,0,0,1,32.11,51,33.31,33.31,0,0,1,35,48.5a29.89,29.89,0,0,1,3-2,28.37,28.37,0,0,1,2.69-1.44c.7-.33,1.48-.66,2.36-1a9.58,9.58,0,0,1,2.76-.65,7.79,7.79,0,0,1,2.93.31,6.15,6.15,0,0,1,2.82,1.94A1.82,1.82,0,0,1,52.06,47a2.19,2.19,0,0,1-.45,1.22,2.1,2.1,0,0,1-1.49.77,2.21,2.21,0,0,1-1.71-.56,3.35,3.35,0,0,0-2.55-1.12,9.19,9.19,0,0,0-3.62,1,22,22,0,0,0-2.38,1.33,28.3,28.3,0,0,0-2.63,1.88c-.85.69-1.67,1.42-2.45,2.17A14.81,14.81,0,0,0,32.85,56a4.48,4.48,0,0,0-.66,1.46,1.27,1.27,0,0,0,.13,1.25c.34.38.92.31,1.76-.21.59-.38,1.33-.83,2.22-1.38s1.81-1.09,2.75-1.64,1.88-1.09,2.8-1.59,1.72-.9,2.41-1.19a5.62,5.62,0,0,1,1.7-.41,3.14,3.14,0,0,1,1.45.2,1.68,1.68,0,0,1,.89.83,2.5,2.5,0,0,1,.15,1.48,14.72,14.72,0,0,0-.27,2,6.18,6.18,0,0,0,.09,1.65A2.16,2.16,0,0,0,49,59.75a2.65,2.65,0,0,0,1.41.49c.46,0,1,0,1.62-.1s1.25-.16,1.87-.28,1.25-.25,1.86-.39,1.15-.28,1.6-.42a2,2,0,0,1,1.4,0,2,2,0,0,1,.9.78"/></svg>