<svg xmlns="http://www.w3.org/2000/svg" viewBox="0 0 349 87"><defs><style>.a,.c{fill:red;}.b{fill:#0066ad;}.b,.c,.d,.e{fill-rule:evenodd;}.d{fill:#82ff00;}.e{fill:#ff4a00;}.f{fill:blue;}</style></defs><path class="a" d="M333.49,34.24a23.12,23.12,0,0,0-4.74-.54,12.89,12.89,0,0,0-6.33,1.4,9.33,9.33,0,0,0-3.85,4.08,12.35,12.35,0,0,0-1.36,5.68A10.16,10.16,0,0,0,318,49a5.84,5.84,0,0,0,2.58,2.87,7.8,7.8,0,0,0,3.87,1,8.33,8.33,0,0,0,2.81-.47,6.71,6.71,0,0,0,2.36-1.44,9.07,9.07,0,0,0,1.87-2.42,10.27,10.27,0,0,0,1.16-3.25,41,41,0,0,0,.51-4.53q.17-2.73.3-6.46M312,64.54a37.75,37.75,0,0,0,11.48,2.18,13.29,13.29,0,0,0,3.51-.45,8.4,8.4,0,0,0,2.77-1.33,5.7,5.7,0,0,0,1.73-2.36,12.22,12.22,0,0,0,.83-3.44q.19-2,.32-5.94a18.31,18.31,0,0,1-2.06,2.43,10.2,10.2,0,0,1-2.19,1.56,13.22,13.22,0,0,1-3,1.12,14.55,14.55,0,0,1-3.6.43,14.79,14.79,0,0,1-4.91-.82,11.15,11.15,0,0,1-4.13-2.54A11,11,0,0,1,310,51a16.18,16.18,0,0,1-.94-5.5,19.62,19.62,0,0,1,1.54-7.74,14.93,14.93,0,0,1,4.54-6,17.25,17.25,0,0,1,6.39-3.23,29.51,29.51,0,0,1,7.55-.89c1.53,0,3.27.09,5.21.28s4.52.57,7.72,1.14l-.67,9.34-.63,11.69-.24,10.57a20.33,20.33,0,0,1-.44,3.46,9.92,9.92,0,0,1-1.12,3A9.13,9.13,0,0,1,337,69.48a9.64,9.64,0,0,1-2.66,1.67,18,18,0,0,1-3.68,1,26,26,0,0,1-4.7.41q-2.67,0-6.1-.35a59.91,59.91,0,0,1-7.45-1.33Zm-40.94-6.25c.45-4.45.82-9.47,1.12-15s.47-10.53.51-14.93c1.81,0,3.26.06,4.34.06,1.27,0,2.63,0,4.07-.06l-.33,5a21.44,21.44,0,0,1,1.61-2.06,10.56,10.56,0,0,1,1.76-1.5,10,10,0,0,1,2.3-1.17,16,16,0,0,1,2.74-.72,19.19,19.19,0,0,1,3.17-.26,18.38,18.38,0,0,1,5,.67,8.65,8.65,0,0,1,3.87,2.1,7.08,7.08,0,0,1,2,3.15,13.76,13.76,0,0,1,.47,3.62c0,.53,0,1.38-.09,2.54L303,52.58c-.08,1.78-.13,3.69-.15,5.71-1.55,0-2.87-.06-4-.06-1.5,0-3,0-4.51.06.16-1.71.35-4.68.58-8.93s.35-7.07.35-8.45a8.16,8.16,0,0,0-.73-3.74A4.82,4.82,0,0,0,292.24,35a7.7,7.7,0,0,0-3.35-.73,8.11,8.11,0,0,0-3.3.67,7.63,7.63,0,0,0-2.65,2,9.17,9.17,0,0,0-1.82,3.27,31.17,31.17,0,0,0-1,6.8q-.28,4.22-.47,11.28c-1.51,0-2.87-.06-4.09-.06S272.81,58.25,271.05,58.29Zm-15.88,0q.44-4.41.63-7.39c.19-3.14.37-6.76.51-10.87s.25-8,.31-11.69c1.93,0,3.37.06,4.33.06s2.31,0,4.3-.06q-.42,5.11-.67,9.78c-.16,3.09-.28,6.65-.36,10.66s-.12,7.18-.12,9.51c-1.79,0-3.22-.06-4.3-.06S257.23,58.25,255.17,58.29Zm1.6-35.07c.08-2,.12-3.58.12-4.66v-.94c1.79,0,3.24.06,4.36.06,1.53,0,3,0,4.28-.06q-.09.73-.12,1.68l-.15,3.92c-1.49,0-2.87-.06-4.13-.06S258.42,23.18,256.77,23.22ZM224.54,58.29q.12-2.88.18-6.5a21.33,21.33,0,0,0,1.5-1.59l14.41-16.27h-1.54c-2.61,0-4.9,0-6.87.1s-3.91.14-5.79.26c.14-1.88.21-3.87.21-5.95,3.41,0,6.62.06,9.59.06q8.1,0,13.75-.06c-.08.82-.18,3.11-.32,6.86L235,51.55l-1,1q3,.12,4.95.12c2.88,0,4.87,0,6-.05s2.43-.08,4-.16c-.16,1.48-.29,3.41-.41,5.8-3.46,0-7.36-.06-11.73-.06Q229.79,58.23,224.54,58.29ZM194.15,34.91c.27-1.42.44-2.4.51-3s.19-1.43.37-2.59c2.68-.63,5-1.06,7.07-1.33a48.8,48.8,0,0,1,5.92-.38,21.87,21.87,0,0,1,5.95.76,8.94,8.94,0,0,1,4.25,2.39,6.77,6.77,0,0,1,1.52,4.74c0,1.13-.16,4-.47,8.56s-.5,9.33-.56,14.21c-1.5,0-2.87-.06-4.12-.06s-2.61,0-4.21.06c.26-2.37.46-5.12.62-8.24l.38-7.34a19.7,19.7,0,0,1-1.71,1,11.45,11.45,0,0,1-1.33.54c-.49.16-1.35.42-2.59.76s-2.23.65-3,.9a13.61,13.61,0,0,0-2,.87,6.81,6.81,0,0,0-1.51,1.09,3.63,3.63,0,0,0-.9,1.27,3.53,3.53,0,0,0-.28,1.42,3.27,3.27,0,0,0,.72,2.13A3.81,3.81,0,0,0,200.59,54a8.54,8.54,0,0,0,2.57.35,14.06,14.06,0,0,0,2-.15,16.27,16.27,0,0,0,2.81-.73,51,51,0,0,0-1.44,5,33.44,33.44,0,0,1-3.33.45c-.83.06-1.59.09-2.3.09a15.63,15.63,0,0,1-6.1-1,6.76,6.76,0,0,1-3.52-3.17,9.5,9.5,0,0,1-1.13-4.39,7.48,7.48,0,0,1,.44-2.5,7.05,7.05,0,0,1,1.3-2.27,11.15,11.15,0,0,1,2.21-2A15.85,15.85,0,0,1,198,41.82,54.79,54.79,0,0,1,204.79,40c.74-.16,1.51-.35,2.32-.58a16.19,16.19,0,0,0,1.93-.66,4.62,4.62,0,0,0,1.26-.84,3.55,3.55,0,0,0,.77-1.08,2.71,2.71,0,0,0,.25-1.15,2.76,2.76,0,0,0-.74-1.94,4,4,0,0,0-2-1.1,10.34,10.34,0,0,0-2.64-.31A32.43,32.43,0,0,0,194.15,34.91ZM138,58.29q.42-5,.87-15t.46-15c1.67,0,3,.06,4.06.06,1.2,0,2.5,0,3.89-.06l-.22,4.74a20.91,20.91,0,0,1,1.72-2.25,8.46,8.46,0,0,1,2-1.61,11.63,11.63,0,0,1,2.9-1.17,13.87,13.87,0,0,1,3.42-.42,12.73,12.73,0,0,1,2.57.25,11,11,0,0,1,2.25.71,8,8,0,0,1,1.74,1A7,7,0,0,1,165,31,11.75,11.75,0,0,1,166,33.08a19,19,0,0,1,1.2-1.72,8.65,8.65,0,0,1,1.46-1.43,9,9,0,0,1,2-1.24,11.38,11.38,0,0,1,2.51-.78,14.48,14.48,0,0,1,2.9-.28,13.86,13.86,0,0,1,4.83.84,7.43,7.43,0,0,1,3.56,2.65,7.54,7.54,0,0,1,1.3,4.49c0,1-.07,2.33-.22,4.16s-.3,4.8-.5,8.93-.3,7.33-.32,9.59c-1.43,0-2.69-.06-3.8-.06-1.3,0-2.81,0-4.56.06.18-2.53.34-5.18.5-7.95l.35-6.74c.1-1.71.15-3.16.15-4.34a6.14,6.14,0,0,0-.66-3.17,3.75,3.75,0,0,0-1.68-1.54,5.43,5.43,0,0,0-2.28-.46,5.31,5.31,0,0,0-4.41,2.13A7.93,7.93,0,0,0,167,38.83a18.23,18.23,0,0,0-.74,4.19c-.16,1.8-.29,4.15-.38,7.08l-.21,8.19c-1.63,0-3-.06-4.06-.06s-2.53,0-4.33.06c.14-1.5.33-4.6.59-9.28s.38-7.82.38-9.45a9.79,9.79,0,0,0-.21-2.19,4.14,4.14,0,0,0-.84-1.71,3.81,3.81,0,0,0-1.48-1.19,4.87,4.87,0,0,0-2-.38,5.37,5.37,0,0,0-3.62,1.35,7.73,7.73,0,0,0-2.27,3.62,41.17,41.17,0,0,0-1.05,8.82q-.32,6.56-.31,10.41c-1.81,0-3.18-.06-4.09-.06S139.89,58.25,138,58.29Zm-31-20.4h11.28l-4.62-13.61-2.39,4.95ZM87.76,58.29q3.06-5.41,7.19-13.4L102.7,30q3.61-6.9,6-11.93c2.55,0,4.36.06,5.42.06,1.87,0,3.69,0,5.48-.06l4.21,12L133,55.06l1.26,3.23-4.42-.06c-1,0-2.73,0-5.15.06q-.7-2.62-2.23-7.06c-1-3-1.87-5.37-2.57-7.22H104.37q-3.45,7-6.72,14.28l-4.79-.06Q91.5,58.23,87.76,58.29Z"/><path class="a" d="M307.88,72.14q-.12.51-.36,1.92c-.53.11-.94.19-1.24.22s-.58,0-.85,0a5.83,5.83,0,0,1-1.24-.13,2.14,2.14,0,0,1-.91-.47,1.77,1.77,0,0,1-.48-.78,3.52,3.52,0,0,1-.12-.92c0-.08,0-.19,0-.33s0-.58.07-1.33l.22-3.91h-1.35c0-.37.06-1,.08-1.81h1.42c0-.36.07-1,.11-1.85l1.11-.21,1.34-.31c-.05.84-.07,1.64-.08,2.37H308c-.05.84-.07,1.45-.07,1.81h-2.39c-.13,2.55-.2,4-.2,4.42a2.38,2.38,0,0,0,.13.9.78.78,0,0,0,.41.46,1.24,1.24,0,0,0,.6.15,4.4,4.4,0,0,0,.49,0l.91-.21m-14.18-4h4.4a5.47,5.47,0,0,0,0-.67,2.24,2.24,0,0,0-.13-.49,1.53,1.53,0,0,0-.26-.49,1.65,1.65,0,0,0-.4-.35,1.89,1.89,0,0,0-.52-.22,2.62,2.62,0,0,0-.64-.07,2.46,2.46,0,0,0-.76.12,2.11,2.11,0,0,0-.68.36,1.89,1.89,0,0,0-.5.52,2.5,2.5,0,0,0-.29.56C293.83,67.64,293.77,67.88,293.7,68.18ZM299.77,72c-.08.37-.2,1-.35,2a15.66,15.66,0,0,1-1.71.29,13,13,0,0,1-1.4.08,8.7,8.7,0,0,1-2.2-.25,4,4,0,0,1-1.7-.89,3.92,3.92,0,0,1-1.08-1.6,5.83,5.83,0,0,1-.35-2,6.35,6.35,0,0,1,.41-2.24,4.69,4.69,0,0,1,1.13-1.78,4.14,4.14,0,0,1,1.65-1,6.62,6.62,0,0,1,1.95-.29,6.78,6.78,0,0,1,1.82.24,3.5,3.5,0,0,1,1.45.78,3.74,3.74,0,0,1,.9,1.31,4.45,4.45,0,0,1,.31,1.71,4.92,4.92,0,0,1-.09.91h-6.88c0,.23,0,.41,0,.55a2.92,2.92,0,0,0,.22,1.16,2.41,2.41,0,0,0,.63.89,2.67,2.67,0,0,0,1,.54,4.08,4.08,0,0,0,1.13.17,8,8,0,0,0,1.4-.14A13.71,13.71,0,0,0,299.77,72Zm-16.08-3.21,1.9-2.33c.17-.2.36-.45.59-.74l.85-1.13,1.43,0,1.56,0-3.08,3.55-.55.67c.45.73,1.72,2.5,3.79,5.32l-1.44,0-1.49,0-.89-1.43c-.23-.36-.44-.67-.63-.94l-1.6-2.29C284.09,69.38,283.94,69.16,283.69,68.76Zm-3,5.34.18-2.44L281.1,67l.1-4c0-.72,0-1.28,0-1.68l1.4,0,1.29,0-.2,3.05-.23,4.86-.09,3.63V74.1l-1.31,0Zm-7.48,0,.28-4.46.07-2.59c0-.53,0-1.07,0-1.6,0-.1,0-.39,0-.89l1.28,0,1.27,0,0,1.32a4.57,4.57,0,0,1,.61-.75,2.61,2.61,0,0,1,.56-.43,3.3,3.3,0,0,1,.7-.28,3.55,3.55,0,0,1,.79-.09,3.44,3.44,0,0,1,.77.09c0,.59,0,1.32.09,2.22a3.92,3.92,0,0,0-1-.15,2.84,2.84,0,0,0-1,.16,2.19,2.19,0,0,0-.75.5,2.81,2.81,0,0,0-.55.82,3.59,3.59,0,0,0-.26,1c-.05.32-.09.88-.13,1.67s-.05,1.56-.05,2.32q0,.45,0,1.11l-1.31,0Zm-10.16-7.45c.09-.45.14-.76.17-1s.06-.46.11-.82a22.33,22.33,0,0,1,2.26-.43,15.44,15.44,0,0,1,1.88-.12,7.11,7.11,0,0,1,1.9.24,3,3,0,0,1,1.35.76,2.15,2.15,0,0,1,.49,1.52c0,.36-.05,1.26-.15,2.72s-.16,3-.18,4.53l-1.31,0-1.35,0c.09-.75.15-1.63.2-2.62l.12-2.34-.54.33a4.08,4.08,0,0,1-.42.17l-.83.24c-.4.11-.71.21-.95.29a3.43,3.43,0,0,0-.64.28,2.35,2.35,0,0,0-.49.34,1.3,1.3,0,0,0-.28.41,1.13,1.13,0,0,0-.09.45,1.07,1.07,0,0,0,.23.68,1.19,1.19,0,0,0,.58.4,2.48,2.48,0,0,0,.81.11,4.78,4.78,0,0,0,.64,0,4.84,4.84,0,0,0,.89-.24c-.13.36-.28.89-.46,1.6-.44.07-.8.12-1.06.14l-.73,0a5.07,5.07,0,0,1-1.94-.32,2.11,2.11,0,0,1-1.12-1,3,3,0,0,1-.37-1.39,2.33,2.33,0,0,1,.56-1.52,3.68,3.68,0,0,1,.7-.64,5.44,5.44,0,0,1,1.25-.59,18.4,18.4,0,0,1,2.16-.57l.74-.19a4.41,4.41,0,0,0,.62-.21,1.56,1.56,0,0,0,.4-.27,1.06,1.06,0,0,0,.24-.34.8.8,0,0,0,.08-.37.87.87,0,0,0-.23-.61,1.32,1.32,0,0,0-.62-.36,3.72,3.72,0,0,0-.84-.1A10.5,10.5,0,0,0,263.06,66.65ZM245.18,74.1c.09-1.06.18-2.65.28-4.77s.14-3.7.14-4.77l1.3,0,1.24,0-.07,1.51a6.33,6.33,0,0,1,.55-.72,2.25,2.25,0,0,1,.64-.51,3.34,3.34,0,0,1,.92-.37,4.48,4.48,0,0,1,1.1-.14,4.28,4.28,0,0,1,.81.08,3.58,3.58,0,0,1,.72.23,2.23,2.23,0,0,1,.55.33,2,2,0,0,1,.4.42,3.85,3.85,0,0,1,.34.68,6.35,6.35,0,0,1,.38-.55,2.55,2.55,0,0,1,.47-.45,2.77,2.77,0,0,1,.64-.4,3.75,3.75,0,0,1,.8-.25,4.73,4.73,0,0,1,.93-.09,4.42,4.42,0,0,1,1.54.27,2.36,2.36,0,0,1,1.13.84,2.4,2.4,0,0,1,.42,1.44c0,.3,0,.74-.07,1.32s-.1,1.53-.16,2.85-.1,2.33-.1,3l-1.22,0-1.45,0c.06-.8.11-1.65.16-2.53l.11-2.15c0-.55.05-1,.05-1.38a1.93,1.93,0,0,0-.21-1,1.15,1.15,0,0,0-.54-.49,1.66,1.66,0,0,0-.72-.15,1.77,1.77,0,0,0-.77.16,1.79,1.79,0,0,0-.64.52,2.46,2.46,0,0,0-.45.83,5.38,5.38,0,0,0-.23,1.34c-.06.57-.1,1.32-.13,2.25L254,74.1l-1.3,0-1.38,0c0-.48.11-1.46.19-2.95s.12-2.5.12-3a2.77,2.77,0,0,0-.07-.69,1.33,1.33,0,0,0-.26-.55,1.25,1.25,0,0,0-.48-.38,1.52,1.52,0,0,0-.62-.12,1.72,1.72,0,0,0-1.16.43A2.47,2.47,0,0,0,248.3,68a13.61,13.61,0,0,0-.33,2.81c-.07,1.4-.1,2.5-.1,3.32l-1.31,0Zm-7.49,0,.27-4.46.08-2.59c0-.53,0-1.07,0-1.6,0-.1,0-.39,0-.89l1.28,0,1.27,0-.05,1.32a5.16,5.16,0,0,1,.61-.75,2.67,2.67,0,0,1,.57-.43,2.93,2.93,0,0,1,.7-.28,3.48,3.48,0,0,1,.79-.09,3.44,3.44,0,0,1,.77.09c0,.59,0,1.32.08,2.22a3.79,3.79,0,0,0-1-.15,2.84,2.84,0,0,0-1,.16,2.19,2.19,0,0,0-.75.5,2.62,2.62,0,0,0-.55.82,3.92,3.92,0,0,0-.27,1c0,.32-.09.88-.12,1.67s0,1.56,0,2.32q0,.45,0,1.11l-1.31,0Zm-8.31-5.92h4.4a5.47,5.47,0,0,0,0-.67,2.88,2.88,0,0,0-.12-.49,1.77,1.77,0,0,0-.27-.49,1.65,1.65,0,0,0-.4-.35,1.89,1.89,0,0,0-.52-.22,2.59,2.59,0,0,0-.63-.07A2.48,2.48,0,0,0,231,66a2.22,2.22,0,0,0-.68.36,2,2,0,0,0-.5.52,2.5,2.5,0,0,0-.29.56C229.51,67.64,229.45,67.88,229.38,68.18ZM235.45,72c-.08.37-.2,1-.35,2a15.53,15.53,0,0,1-1.7.29,13.14,13.14,0,0,1-1.4.08,8.78,8.78,0,0,1-2.21-.25,4,4,0,0,1-1.7-.89,3.92,3.92,0,0,1-1.08-1.6,5.83,5.83,0,0,1-.35-2,6.35,6.35,0,0,1,.41-2.24,4.69,4.69,0,0,1,1.13-1.78,4.11,4.11,0,0,1,1.66-1,6.5,6.5,0,0,1,1.94-.29,6.78,6.78,0,0,1,1.82.24,3.44,3.44,0,0,1,1.45.78,3.74,3.74,0,0,1,.9,1.31,4.45,4.45,0,0,1,.31,1.71,4.92,4.92,0,0,1-.09.91h-6.88c0,.23,0,.41,0,.55a2.92,2.92,0,0,0,.22,1.16,2.41,2.41,0,0,0,.63.89,2.67,2.67,0,0,0,1,.54,4.08,4.08,0,0,0,1.13.17,8,8,0,0,0,1.4-.14A13.71,13.71,0,0,0,235.45,72ZM218,66.58c0,.34-.08.63-.1.88l0,1c0,.45,0,.78,0,1a4.94,4.94,0,0,0,.12,1.1,2.34,2.34,0,0,0,.46,1,2.44,2.44,0,0,0,.84.67,2.36,2.36,0,0,0,1,.23,2.23,2.23,0,0,0,1.3-.41,2.57,2.57,0,0,0,.91-1.2,4.43,4.43,0,0,0,.32-1.67,3.65,3.65,0,0,0-.35-1.67,2.18,2.18,0,0,0-1-1,2.79,2.79,0,0,0-1.34-.31A6.81,6.81,0,0,0,218,66.58Zm-3.2,11.83c.15-1.74.29-4,.42-6.78s.18-5,.18-6.77c1.19-.21,2.11-.36,2.77-.43s1.29-.1,1.94-.1a8.46,8.46,0,0,1,2.32.3,3.46,3.46,0,0,1,1.69,1,4.36,4.36,0,0,1,.94,1.63,6.25,6.25,0,0,1,.31,1.94,6.49,6.49,0,0,1-.3,2,5.08,5.08,0,0,1-.89,1.71A3.51,3.51,0,0,1,222.74,74a4.31,4.31,0,0,1-1.73.35,5.16,5.16,0,0,1-1.1-.13,4.29,4.29,0,0,1-.94-.35,3.38,3.38,0,0,1-.67-.44,6.63,6.63,0,0,1-.67-.66l-.14,4.09v.63c0,.08,0,.4,0,.94h-2.72Zm-11.31,0c-.11-.94-.2-1.61-.27-2a3.92,3.92,0,0,0,1.7.43,2.14,2.14,0,0,0,.5-.06,2.19,2.19,0,0,0,.47-.18,1.08,1.08,0,0,0,.28-.22,3,3,0,0,0,.41-.51,8.44,8.44,0,0,0,.44-.74,8,8,0,0,0,.3-.79l-2-5.71-1.42-4,1.41,0,1.31,0c.13.51.25,1,.36,1.35l.89,3c.28.91.48,1.59.6,2,.07.3.16.7.26,1.19.19-.57.35-1,.49-1.39q.36-1,1-2.61l.91-2.25c.16-.4.33-.83.49-1.29l1.29,0,1.35,0-3.61,8.1-1.57,3.57a5,5,0,0,1-.63,1.08,3.22,3.22,0,0,1-.53.57,3.13,3.13,0,0,1-.6.37,4,4,0,0,1-.88.3,4.83,4.83,0,0,1-1.08.12c-.2,0-.49,0-.86-.06A7.61,7.61,0,0,1,203.44,78.42ZM189.89,74.1l.21-3.37c.12-1.84.2-3.54.26-5.12s.07-2.67.07-3.29v-1l1.57,0,1.42,0-.25,4.23,0,1h6.4l.11-2.54c0-.87,0-1.44,0-1.72v-1l1.57,0,1.41,0-.31,5.12-.14,3.79,0,2.22c0,.92,0,1.48,0,1.68l-1.46,0-1.56,0c.16-1.77.26-3.63.31-5.58H193L192.9,72l0,2.13-1.54,0Z"/><path class="b" d="M19.59,18.69c2.22-2.54,2.84-7.07,7.41-6.37l.53.08c1.9.3,6.14,5.36,6.39,7.53l3.27-.68c-.35-3.21-5.75-8.39-9.87-9l-1-.16c-3.36-.52-6.07,4.59-6.69,8.62"/><path class="b" d="M29,10c7.66,1.17,9.65,2.57,11.69,8.43L43.43,17c-1-2.26-6.27-7.93-9.42-8.42l-1-.16A3.79,3.79,0,0,0,29,10"/><path class="c" d="M16.9,24.14,16,29.9A63.35,63.35,0,0,1,12.61,43C11.4,45.72,7.37,52.15,7,53.71,12.24,51,18.24,36.35,19.68,27.58l26.74-3.73c3.67,3.37,5.59,11.64,7.2,17,.85,2.83,4.38,17.62,5,18.62.26-3.68-2.69-18.23-3.59-22-1.12-4.71-5.14-17.17-5.4-20.65-2.65.28-11.92,3.6-15.77,4.47s-12.74,3.47-17,2.82"/><path class="d" d="M82.27,58.34,54.09,19.79c0,.57,7.59,20.29,8.53,22.7,1.83,4.68,6,18.8,5.72,24.46,1.27-.71,2.63-3.87,4.69-5.49,2.79-2.19,3.18-1.82,6-3.25Z"/><path class="e" d="M51,20.33C53.2,26.48,61,46,60.52,52.91l-.41,5.89c-.13,1.83-2.55,3.47-4.79,3.32-4-.28-7.54-2.35-10.3-2.55l-4.54-.31c-7.54-.53-27.21,3.15-30.09,6.55,6.29-1,10.26-2.93,18.4-2.36l9.53.67c10.32.72,18,6.72,26.38,7.31,1.46.11,2.38-1.49,2.49-3C67.76,60.29,63,49.25,60.61,43,59,39,53,22.08,51,20.33"/><path class="f" d="M49.24,49.72a2,2,0,0,1,.16,1.63,2,2,0,0,1-1.19,1.27,27.58,27.58,0,0,1-4.35,1.19,19.32,19.32,0,0,1-4.38.37A8.31,8.31,0,0,1,36,53.37a5.26,5.26,0,0,1-2.28-3.68,5.9,5.9,0,0,1,0-1.72.52.52,0,0,0-.32-.56.91.91,0,0,0-.79.12,13.26,13.26,0,0,0-1.55.81c-.61.35-1.26.75-2,1.18s-1.39.87-2.11,1.34-1.39.88-2,1.25a6.93,6.93,0,0,1-4,1,3.89,3.89,0,0,1-2.7-1.36,4.64,4.64,0,0,1-.8-3.83,10.34,10.34,0,0,1,.71-2.23,12.66,12.66,0,0,1,1.18-2,19.47,19.47,0,0,1,2.42-2.8,32,32,0,0,1,2.88-2.48,28.91,28.91,0,0,1,3-2c1-.58,1.88-1.06,2.69-1.44s1.48-.66,2.36-1a9.76,9.76,0,0,1,2.76-.65,7.8,7.8,0,0,1,2.93.32,6.18,6.18,0,0,1,2.82,1.94,1.86,1.86,0,0,1,.54,1.37,2.2,2.2,0,0,1-.46,1.22,2.07,2.07,0,0,1-1.48.76A2.17,2.17,0,0,1,38,38.32a3.32,3.32,0,0,0-2.54-1.11,9,9,0,0,0-3.62,1,20.87,20.87,0,0,0-2.38,1.32,27.14,27.14,0,0,0-2.63,1.89c-.86.69-1.68,1.41-2.46,2.17a15.4,15.4,0,0,0-1.93,2.26,4.63,4.63,0,0,0-.65,1.45c-.16.59-.12,1,.13,1.26s.92.3,1.75-.21c.6-.38,1.34-.84,2.23-1.38s1.8-1.1,2.75-1.65,1.88-1.08,2.79-1.58a25.11,25.11,0,0,1,2.42-1.19,5.34,5.34,0,0,1,1.7-.41,3.16,3.16,0,0,1,1.45.19,1.7,1.7,0,0,1,.89.84,2.47,2.47,0,0,1,.15,1.47,15,15,0,0,0-.28,2,5.81,5.81,0,0,0,.1,1.66,2.14,2.14,0,0,0,.68,1.34,2.5,2.5,0,0,0,1.4.48,14.59,14.59,0,0,0,1.63-.1c.62-.06,1.24-.16,1.87-.27s1.25-.25,1.86-.39,1.14-.28,1.6-.43a2.05,2.05,0,0,1,1.39,0,2.08,2.08,0,0,1,.9.79"/></svg>